<?xml version="1.0" encoding="UTF-8" standalone="no"?>
<svg
   xmlns:dc="http://purl.org/dc/elements/1.1/"
   xmlns:cc="http://creativecommons.org/ns#"
   xmlns:rdf="http://www.w3.org/1999/02/22-rdf-syntax-ns#"
   xmlns:svg="http://www.w3.org/2000/svg"
   xmlns="http://www.w3.org/2000/svg"
   xmlns:sodipodi="http://sodipodi.sourceforge.net/DTD/sodipodi-0.dtd"
   xmlns:inkscape="http://www.inkscape.org/namespaces/inkscape"
   width="1088"
   height="687.962"
   viewBox="0 0 1088 687.962"
   version="1.1"
   id="svg162"
   sodipodi:docname="undraw_docusaurus_mountain.svg"
   inkscape:version="1.0.1 (3bc2e813f5, 2020-09-07)">
  <metadata
     id="metadata168">
    <rdf:RDF>
      <cc:Work
         rdf:about="">
        <dc:format>image/svg+xml</dc:format>
        <dc:type
           rdf:resource="http://purl.org/dc/dcmitype/StillImage" />
      </cc:Work>
    </rdf:RDF>
  </metadata>
  <defs
     id="defs166" />
  <sodipodi:namedview
     pagecolor="#ffffff"
     bordercolor="#666666"
     borderopacity="1"
     objecttolerance="10"
     gridtolerance="10"
     guidetolerance="10"
     inkscape:pageopacity="0"
     inkscape:pageshadow="2"
     inkscape:window-width="3200"
     inkscape:window-height="1685"
     id="namedview164"
     showgrid="false"
     inkscape:zoom="8.2884073"
     inkscape:cx="324.0023"
     inkscape:cy="563.06588"
     inkscape:window-x="-12"
     inkscape:window-y="-12"
     inkscape:window-maximized="1"
     inkscape:current-layer="svg162" />
  <title
     id="title2">Easy to Use</title>
  <g
     id="Group_12"
     data-name="Group 12"
     transform="translate(-57 -56)">
    <g
       id="Group_11"
       data-name="Group 11"
       transform="translate(57 56)">
      <path
         id="Path_83"
         data-name="Path 83"
         d="M1017.81,560.461c-5.27,45.15-16.22,81.4-31.25,110.31-20,38.52-54.21,54.04-84.77,70.28a193.275,193.275,0,0,1-27.46,11.94c-55.61,19.3-117.85,14.18-166.74,3.99a657.282,657.282,0,0,0-104.09-13.16q-14.97-.675-29.97-.67c-15.42.02-293.07,5.29-360.67-131.57-16.69-33.76-28.13-75-32.24-125.27-11.63-142.12,52.29-235.46,134.74-296.47,155.97-115.41,369.76-110.57,523.43,7.88C941.15,276.621,1036.99,396.031,1017.81,560.461Z"
         transform="translate(-56 -106.019)"
         fill="#3f3d56" />
      <path
         id="Path_84"
         data-name="Path 84"
         d="M986.56,670.771c-20,38.52-47.21,64.04-77.77,80.28a193.272,193.272,0,0,1-27.46,11.94c-55.61,19.3-117.85,14.18-166.74,3.99a657.3,657.3,0,0,0-104.09-13.16q-14.97-.675-29.97-.67-23.13.03-46.25,1.72c-100.17,7.36-253.82-6.43-321.42-143.29L382,283.981,444.95,445.6l20.09,51.59,55.37-75.98L549,381.981l130.2,149.27,36.8-81.27L970.78,657.9l14.21,11.59Z"
         transform="translate(-56 -106.019)"
         fill="#f2f2f2" />
      <path
         id="Path_85"
         data-name="Path 85"
         d="M302,282.962l26-57,36,83-31-60Z"
         opacity="0.1" />
      <path
         id="Path_86"
         data-name="Path 86"
         d="M610.5,753.821q-14.97-.675-29.97-.67L465.04,497.191Z"
         transform="translate(-56 -106.019)"
         opacity="0.1" />
      <path
         id="Path_87"
         data-name="Path 87"
         d="M464.411,315.191,493,292.962l130,150-132-128Z"
         opacity="0.1" />
      <path
         id="Path_88"
         data-name="Path 88"
         d="M908.79,751.051a193.265,193.265,0,0,1-27.46,11.94L679.2,531.251Z"
         transform="translate(-56 -106.019)"
         opacity="0.1" />
      <circle
         id="Ellipse_11"
         data-name="Ellipse 11"
         cx="3"
         cy="3"
         r="3"
         transform="translate(479 98.962)"
         fill="#f2f2f2" />
      <circle
         id="Ellipse_12"
         data-name="Ellipse 12"
         cx="3"
         cy="3"
         r="3"
         transform="translate(396 201.962)"
         fill="#f2f2f2" />
      <circle
         id="Ellipse_13"
         data-name="Ellipse 13"
         cx="2"
         cy="2"
         r="2"
         transform="translate(600 220.962)"
         fill="#f2f2f2" />
      <circle
         id="Ellipse_14"
         data-name="Ellipse 14"
         cx="2"
         cy="2"
         r="2"
         transform="translate(180 265.962)"
         fill="#f2f2f2" />
      <circle
         id="Ellipse_15"
         data-name="Ellipse 15"
         cx="2"
         cy="2"
         r="2"
         transform="translate(612 96.962)"
         fill="#f2f2f2" />
      <circle
         id="Ellipse_16"
         data-name="Ellipse 16"
         cx="2"
         cy="2"
         r="2"
         transform="translate(736 192.962)"
         fill="#f2f2f2" />
      <circle
         id="Ellipse_17"
         data-name="Ellipse 17"
         cx="2"
         cy="2"
         r="2"
         transform="translate(858 344.962)"
         fill="#f2f2f2" />
      <path
         id="Path_89"
         data-name="Path 89"
         d="M306,121.222h-2.76v-2.76h-1.48v2.76H299V122.7h2.76v2.759h1.48V122.7H306Z"
         fill="#f2f2f2" />
      <path
         id="Path_90"
         data-name="Path 90"
         d="M848,424.222h-2.76v-2.76h-1.48v2.76H841V425.7h2.76v2.759h1.48V425.7H848Z"
         fill="#f2f2f2" />
      <path
         id="Path_91"
         data-name="Path 91"
         d="M1144,719.981c0,16.569-243.557,74-544,74s-544-57.431-544-74,243.557,14,544,14S1144,703.413,1144,719.981Z"
         transform="translate(-56 -106.019)"
         fill="#3f3d56" />
      <path
         id="Path_92"
         data-name="Path 92"
         d="M1144,719.981c0,16.569-243.557,74-544,74s-544-57.431-544-74,243.557,14,544,14S1144,703.413,1144,719.981Z"
         transform="translate(-56 -106.019)"
         opacity="0.1" />
      <ellipse
         id="Ellipse_18"
         data-name="Ellipse 18"
         cx="544"
         cy="30"
         rx="544"
         ry="30"
         transform="translate(0 583.962)"
         fill="#3f3d56" />
      <path
         id="Path_93"
         data-name="Path 93"
         d="M624,677.981c0,33.137-14.775,24-33,24s-33,9.137-33-24,33-96,33-96S624,644.844,624,677.981Z"
         transform="translate(-56 -106.019)"
         fill="#ff6584" />
      <path
         id="Path_94"
         data-name="Path 94"
         d="M606,690.66c0,15.062-6.716,10.909-15,10.909s-15,4.153-15-10.909,15-43.636,15-43.636S606,675.6,606,690.66Z"
         transform="translate(-56 -106.019)"
         opacity="0.1" />
      <rect
         id="Rectangle_97"
         data-name="Rectangle 97"
         width="92"
         height="18"
         rx="9"
         transform="translate(489 604.962)"
         fill="#2f2e41" />
      <rect
         id="Rectangle_98"
         data-name="Rectangle 98"
         width="92"
         height="18"
         rx="9"
         transform="translate(489 586.962)"
         fill="#2f2e41" />
      <path
         id="Path_95"
         data-name="Path 95"
         d="M193,596.547c0,55.343,34.719,100.126,77.626,100.126"
         transform="translate(-56 -106.019)"
         fill="#3f3d56" />
      <path
         id="Path_96"
         data-name="Path 96"
         d="M270.626,696.673c0-55.965,38.745-101.251,86.626-101.251"
         transform="translate(-56 -106.019)"
         fill="#6c63ff" />
      <path
         id="Path_97"
         data-name="Path 97"
         d="M221.125,601.564c0,52.57,22.14,95.109,49.5,95.109"
         transform="translate(-56 -106.019)"
         fill="#6c63ff" />
      <path
         id="Path_98"
         data-name="Path 98"
         d="M270.626,696.673c0-71.511,44.783-129.377,100.126-129.377"
         transform="translate(-56 -106.019)"
         fill="#3f3d56" />
      <path
         id="Path_99"
         data-name="Path 99"
         d="M254.3,697.379s11.009-.339,14.326-2.7,16.934-5.183,17.757-1.395,16.544,18.844,4.115,18.945-28.879-1.936-32.19-3.953S254.3,697.379,254.3,697.379Z"
         transform="translate(-56 -106.019)"
         fill="#a8a8a8" />
      <path
         id="Path_100"
         data-name="Path 100"
         d="M290.716,710.909c-12.429.1-28.879-1.936-32.19-3.953-2.522-1.536-3.527-7.048-3.863-9.591l-.368.014s.7,8.879,4.009,10.9,19.761,4.053,32.19,3.953c3.588-.029,4.827-1.305,4.759-3.2C294.755,710.174,293.386,710.887,290.716,710.909Z"
         transform="translate(-56 -106.019)"
         opacity="0.2" />
      <path
         id="Path_101"
         data-name="Path 101"
         d="M777.429,633.081c0,38.029,23.857,68.8,53.341,68.8"
         transform="translate(-56 -106.019)"
         fill="#3f3d56" />
      <path
         id="Path_102"
         data-name="Path 102"
         d="M830.769,701.882c0-38.456,26.623-69.575,59.525-69.575"
         transform="translate(-56 -106.019)"
         fill="#6c63ff" />
      <path
         id="Path_103"
         data-name="Path 103"
         d="M796.755,636.528c0,36.124,15.213,65.354,34.014,65.354"
         transform="translate(-56 -106.019)"
         fill="#6c63ff" />
      <path
         id="Path_104"
         data-name="Path 104"
         d="M830.769,701.882c0-49.139,30.773-88.9,68.8-88.9"
         transform="translate(-56 -106.019)"
         fill="#3f3d56" />
      <path
         id="Path_105"
         data-name="Path 105"
         d="M819.548,702.367s7.565-.233,9.844-1.856,11.636-3.562,12.2-.958,11.368,12.949,2.828,13.018-19.844-1.33-22.119-2.716S819.548,702.367,819.548,702.367Z"
         transform="translate(-56 -106.019)"
         fill="#a8a8a8" />
      <path
         id="Path_106"
         data-name="Path 106"
         d="M844.574,711.664c-8.54.069-19.844-1.33-22.119-2.716-1.733-1.056-2.423-4.843-2.654-6.59l-.253.01s.479,6.1,2.755,7.487,13.579,2.785,22.119,2.716c2.465-.02,3.317-.9,3.27-2.2C847.349,711.159,846.409,711.649,844.574,711.664Z"
         transform="translate(-56 -106.019)"
         opacity="0.2" />
      <path
         id="Path_107"
         data-name="Path 107"
         d="M949.813,724.718s11.36-1.729,14.5-4.591,16.89-7.488,18.217-3.667,19.494,17.447,6.633,19.107-30.153,1.609-33.835-.065S949.813,724.718,949.813,724.718Z"
         transform="translate(-56 -106.019)"
         fill="#a8a8a8" />
      <path
         id="Path_108"
         data-name="Path 108"
         d="M989.228,734.173c-12.86,1.659-30.153,1.609-33.835-.065-2.8-1.275-4.535-6.858-5.2-9.45l-.379.061s1.833,9.109,5.516,10.783,20.975,1.725,33.835.065c3.712-.479,4.836-1.956,4.529-3.906C993.319,732.907,991.991,733.817,989.228,734.173Z"
         transform="translate(-56 -106.019)"
         opacity="0.2" />
      <path
         id="Path_109"
         data-name="Path 109"
         d="M670.26,723.9s9.587-1.459,12.237-3.875,14.255-6.32,15.374-3.095,16.452,14.725,5.6,16.125-25.448,1.358-28.555-.055S670.26,723.9,670.26,723.9Z"
         transform="translate(-56 -106.019)"
         fill="#a8a8a8" />
      <path
         id="Path_110"
         data-name="Path 110"
         d="M703.524,731.875c-10.853,1.4-25.448,1.358-28.555-.055-2.367-1.076-3.827-5.788-4.39-7.976l-.32.051s1.547,7.687,4.655,9.1,17.7,1.456,28.555.055c3.133-.4,4.081-1.651,3.822-3.3C706.977,730.807,705.856,731.575,703.524,731.875Z"
         transform="translate(-56 -106.019)"
         opacity="0.2" />
      <path
         id="Path_111"
         data-name="Path 111"
         d="M178.389,719.109s7.463-1.136,9.527-3.016,11.1-4.92,11.969-2.409,12.808,11.463,4.358,12.553-19.811,1.057-22.23-.043S178.389,719.109,178.389,719.109Z"
         transform="translate(-56 -106.019)"
         fill="#a8a8a8" />
      <path
         id="Path_112"
         data-name="Path 112"
         d="M204.285,725.321c-8.449,1.09-19.811,1.057-22.23-.043-1.842-.838-2.979-4.506-3.417-6.209l-.249.04s1.2,5.984,3.624,7.085,13.781,1.133,22.23.043c2.439-.315,3.177-1.285,2.976-2.566C206.973,724.489,206.1,725.087,204.285,725.321Z"
         transform="translate(-56 -106.019)"
         opacity="0.2" />
      <path
         id="Path_113"
         data-name="Path 113"
         d="M439.7,707.337c0,30.22-42.124,20.873-93.7,20.873s-93.074,9.347-93.074-20.873,42.118-36.793,93.694-36.793S439.7,677.117,439.7,707.337Z"
         transform="translate(-56 -106.019)"
         opacity="0.1" />
      <path
         id="Path_114"
         data-name="Path 114"
         d="M439.7,699.9c0,30.22-42.124,20.873-93.7,20.873s-93.074,9.347-93.074-20.873S295.04,663.1,346.616,663.1,439.7,669.676,439.7,699.9Z"
         transform="translate(-56 -106.019)"
         fill="#3f3d56" />
    </g>
    <g
       id="docusaurus_keytar"
       transform="translate(312.271 493.733)">
      <path
         id="Path_40"
         data-name="Path 40"
         d="M99,52h91.791V89.153H99Z"
         transform="translate(5.904 -14.001)"
         fill="#fff"
         fill-rule="evenodd" />
      <path
         id="Path_41"
         data-name="Path 41"
         d="M24.855,163.927A21.828,21.828,0,0,1,5.947,153a21.829,21.829,0,0,0,18.908,32.782H46.71V163.927Z"
         transform="translate(-3 -4.634)"
         fill="#3ecc5f"
         fill-rule="evenodd" />
      <path
         id="Path_42"
         data-name="Path 42"
         d="M121.861,61.1l76.514-4.782V45.39A21.854,21.854,0,0,0,176.52,23.535H78.173L75.441,18.8a3.154,3.154,0,0,0-5.464,0l-2.732,4.732L64.513,18.8a3.154,3.154,0,0,0-5.464,0l-2.732,4.732L53.586,18.8a3.154,3.154,0,0,0-5.464,0L45.39,23.535c-.024,0-.046,0-.071,0l-4.526-4.525a3.153,3.153,0,0,0-5.276,1.414l-1.5,5.577-5.674-1.521a3.154,3.154,0,0,0-3.863,3.864L26,34.023l-5.575,1.494a3.155,3.155,0,0,0-1.416,5.278l4.526,4.526c0,.023,0,.046,0,.07L18.8,48.122a3.154,3.154,0,0,0,0,5.464l4.732,2.732L18.8,59.05a3.154,3.154,0,0,0,0,5.464l4.732,2.732L18.8,69.977a3.154,3.154,0,0,0,0,5.464l4.732,2.732L18.8,80.9a3.154,3.154,0,0,0,0,5.464L23.535,89.1,18.8,91.832a3.154,3.154,0,0,0,0,5.464l4.732,2.732L18.8,102.76a3.154,3.154,0,0,0,0,5.464l4.732,2.732L18.8,113.687a3.154,3.154,0,0,0,0,5.464l4.732,2.732L18.8,124.615a3.154,3.154,0,0,0,0,5.464l4.732,2.732L18.8,135.542a3.154,3.154,0,0,0,0,5.464l4.732,2.732L18.8,146.469a3.154,3.154,0,0,0,0,5.464l4.732,2.732L18.8,157.4a3.154,3.154,0,0,0,0,5.464l4.732,2.732L18.8,168.324a3.154,3.154,0,0,0,0,5.464l4.732,2.732A21.854,21.854,0,0,0,45.39,198.375H176.52a21.854,21.854,0,0,0,21.855-21.855V89.1l-76.514-4.782a11.632,11.632,0,0,1,0-23.219"
         transform="translate(-1.681 -17.226)"
         fill="#3ecc5f"
         fill-rule="evenodd" />
      <path
         id="Path_43"
         data-name="Path 43"
         d="M143,186.71h32.782V143H143Z"
         transform="translate(9.984 -5.561)"
         fill="#3ecc5f"
         fill-rule="evenodd" />
      <path
         id="Path_44"
         data-name="Path 44"
         d="M196.71,159.855a5.438,5.438,0,0,0-.7.07c-.042-.164-.081-.329-.127-.493a5.457,5.457,0,1,0-5.4-9.372q-.181-.185-.366-.367a5.454,5.454,0,1,0-9.384-5.4c-.162-.046-.325-.084-.486-.126a5.467,5.467,0,1,0-10.788,0c-.162.042-.325.08-.486.126a5.457,5.457,0,1,0-9.384,5.4,21.843,21.843,0,1,0,36.421,21.02,5.452,5.452,0,1,0,.7-10.858"
         transform="translate(10.912 -6.025)"
         fill="#44d860"
         fill-rule="evenodd" />
      <path
         id="Path_45"
         data-name="Path 45"
         d="M153,124.855h32.782V103H153Z"
         transform="translate(10.912 -9.271)"
         fill="#3ecc5f"
         fill-rule="evenodd" />
      <path
         id="Path_46"
         data-name="Path 46"
         d="M194.855,116.765a2.732,2.732,0,1,0,0-5.464,2.811,2.811,0,0,0-.349.035c-.022-.082-.04-.164-.063-.246a2.733,2.733,0,0,0-1.052-5.253,2.7,2.7,0,0,0-1.648.566q-.09-.093-.184-.184a2.7,2.7,0,0,0,.553-1.633,2.732,2.732,0,0,0-5.245-1.07,10.928,10.928,0,1,0,0,21.031,2.732,2.732,0,0,0,5.245-1.07,2.7,2.7,0,0,0-.553-1.633q.093-.09.184-.184a2.7,2.7,0,0,0,1.648.566,2.732,2.732,0,0,0,1.052-5.253c.023-.081.042-.164.063-.246a2.814,2.814,0,0,0,.349.035"
         transform="translate(12.767 -9.377)"
         fill="#44d860"
         fill-rule="evenodd" />
      <path
         id="Path_47"
         data-name="Path 47"
         d="M65.087,56.891a2.732,2.732,0,0,1-2.732-2.732,8.2,8.2,0,0,0-16.391,0,2.732,2.732,0,0,1-5.464,0,13.659,13.659,0,0,1,27.319,0,2.732,2.732,0,0,1-2.732,2.732"
         transform="translate(0.478 -15.068)"
         fill-rule="evenodd" />
      <path
         id="Path_48"
         data-name="Path 48"
         d="M103,191.347h65.565a21.854,21.854,0,0,0,21.855-21.855V93H124.855A21.854,21.854,0,0,0,103,114.855Z"
         transform="translate(6.275 -10.199)"
         fill="#ffff50"
         fill-rule="evenodd" />
      <path
         id="Path_49"
         data-name="Path 49"
         d="M173.216,129.787H118.535a1.093,1.093,0,1,1,0-2.185h54.681a1.093,1.093,0,0,1,0,2.185m0,21.855H118.535a1.093,1.093,0,1,1,0-2.186h54.681a1.093,1.093,0,0,1,0,2.186m0,21.855H118.535a1.093,1.093,0,1,1,0-2.185h54.681a1.093,1.093,0,0,1,0,2.185m0-54.434H118.535a1.093,1.093,0,1,1,0-2.185h54.681a1.093,1.093,0,0,1,0,2.185m0,21.652H118.535a1.093,1.093,0,1,1,0-2.186h54.681a1.093,1.093,0,0,1,0,2.186m0,21.855H118.535a1.093,1.093,0,1,1,0-2.186h54.681a1.093,1.093,0,0,1,0,2.186M189.585,61.611c-.013,0-.024-.007-.037-.005-3.377.115-4.974,3.492-6.384,6.472-1.471,3.114-2.608,5.139-4.473,5.078-2.064-.074-3.244-2.406-4.494-4.874-1.436-2.835-3.075-6.049-6.516-5.929-3.329.114-4.932,3.053-6.346,5.646-1.5,2.762-2.529,4.442-4.5,4.364-2.106-.076-3.225-1.972-4.52-4.167-1.444-2.443-3.112-5.191-6.487-5.1-3.272.113-4.879,2.606-6.3,4.808-1.5,2.328-2.552,3.746-4.551,3.662-2.156-.076-3.27-1.65-4.558-3.472-1.447-2.047-3.077-4.363-6.442-4.251-3.2.109-4.807,2.153-6.224,3.954-1.346,1.709-2.4,3.062-4.621,2.977a1.093,1.093,0,0,0-.079,2.186c3.3.11,4.967-1.967,6.417-3.81,1.286-1.635,2.4-3.045,4.582-3.12,2.1-.09,3.091,1.218,4.584,3.327,1.417,2,3.026,4.277,6.263,4.394,3.391.114,5.022-2.42,6.467-4.663,1.292-2,2.406-3.734,4.535-3.807,1.959-.073,3.026,1.475,4.529,4.022,1.417,2.4,3.023,5.121,6.324,5.241,3.415.118,5.064-2.863,6.5-5.5,1.245-2.282,2.419-4.437,4.5-4.509,1.959-.046,2.981,1.743,4.492,4.732,1.412,2.79,3.013,5.95,6.365,6.071l.185,0c3.348,0,4.937-3.36,6.343-6.331,1.245-2.634,2.423-5.114,4.444-5.216Z"
         transform="translate(7.109 -13.11)"
         fill-rule="evenodd" />
      <path
         id="Path_50"
         data-name="Path 50"
         d="M83,186.71h43.71V143H83Z"
         transform="translate(4.42 -5.561)"
         fill="#3ecc5f"
         fill-rule="evenodd" />
      <g
         id="Group_8"
         data-name="Group 8"
         transform="matrix(0.966, -0.259, 0.259, 0.966, 109.327, 91.085)">
        <rect
           id="Rectangle_3"
           data-name="Rectangle 3"
           width="92.361"
           height="36.462"
           rx="2"
           transform="translate(0 0)"
           fill="#d8d8d8" />
        <g
           id="Group_2"
           data-name="Group 2"
           transform="translate(1.531 23.03)">
          <rect
             id="Rectangle_4"
             data-name="Rectangle 4"
             width="5.336"
             height="5.336"
             rx="1"
             transform="translate(16.797 0)"
             fill="#4a4a4a" />
          <rect
             id="Rectangle_5"
             data-name="Rectangle 5"
             width="5.336"
             height="5.336"
             rx="1"
             transform="translate(23.12 0)"
             fill="#4a4a4a" />
          <rect
             id="Rectangle_6"
             data-name="Rectangle 6"
             width="5.336"
             height="5.336"
             rx="1"
             transform="translate(29.444 0)"
             fill="#4a4a4a" />
          <rect
             id="Rectangle_7"
             data-name="Rectangle 7"
             width="5.336"
             height="5.336"
             rx="1"
             transform="translate(35.768 0)"
             fill="#4a4a4a" />
          <rect
             id="Rectangle_8"
             data-name="Rectangle 8"
             width="5.336"
             height="5.336"
             rx="1"
             transform="translate(42.091 0)"
             fill="#4a4a4a" />
          <rect
             id="Rectangle_9"
             data-name="Rectangle 9"
             width="5.336"
             height="5.336"
             rx="1"
             transform="translate(48.415 0)"
             fill="#4a4a4a" />
          <rect
             id="Rectangle_10"
             data-name="Rectangle 10"
             width="5.336"
             height="5.336"
             rx="1"
             transform="translate(54.739 0)"
             fill="#4a4a4a" />
          <rect
             id="Rectangle_11"
             data-name="Rectangle 11"
             width="5.336"
             height="5.336"
             rx="1"
             transform="translate(61.063 0)"
             fill="#4a4a4a" />
          <rect
             id="Rectangle_12"
             data-name="Rectangle 12"
             width="5.336"
             height="5.336"
             rx="1"
             transform="translate(67.386 0)"
             fill="#4a4a4a" />
          <path
             id="Path_51"
             data-name="Path 51"
             d="M1.093,0H14.518a1.093,1.093,0,0,1,1.093,1.093V4.243a1.093,1.093,0,0,1-1.093,1.093H1.093A1.093,1.093,0,0,1,0,4.243V1.093A1.093,1.093,0,0,1,1.093,0ZM75,0H88.426a1.093,1.093,0,0,1,1.093,1.093V4.243a1.093,1.093,0,0,1-1.093,1.093H75a1.093,1.093,0,0,1-1.093-1.093V1.093A1.093,1.093,0,0,1,75,0Z"
             transform="translate(0 0)"
             fill="#4a4a4a"
             fill-rule="evenodd" />
        </g>
        <g
           id="Group_3"
           data-name="Group 3"
           transform="translate(1.531 10.261)">
          <path
             id="Path_52"
             data-name="Path 52"
             d="M1.093,0H6.218A1.093,1.093,0,0,1,7.31,1.093V4.242A1.093,1.093,0,0,1,6.218,5.335H1.093A1.093,1.093,0,0,1,0,4.242V1.093A1.093,1.093,0,0,1,1.093,0Z"
             transform="translate(0 0)"
             fill="#4a4a4a"
             fill-rule="evenodd" />
          <rect
             id="Rectangle_13"
             data-name="Rectangle 13"
             width="5.336"
             height="5.336"
             rx="1"
             transform="translate(8.299 0)"
             fill="#4a4a4a" />
          <rect
             id="Rectangle_14"
             data-name="Rectangle 14"
             width="5.336"
             height="5.336"
             rx="1"
             transform="translate(14.623 0)"
             fill="#4a4a4a" />
          <rect
             id="Rectangle_15"
             data-name="Rectangle 15"
             width="5.336"
             height="5.336"
             rx="1"
             transform="translate(20.947 0)"
             fill="#4a4a4a" />
          <rect
             id="Rectangle_16"
             data-name="Rectangle 16"
             width="5.336"
             height="5.336"
             rx="1"
             transform="translate(27.271 0)"
             fill="#4a4a4a" />
          <rect
             id="Rectangle_17"
             data-name="Rectangle 17"
             width="5.336"
             height="5.336"
             rx="1"
             transform="translate(33.594 0)"
             fill="#4a4a4a" />
          <rect
             id="Rectangle_18"
             data-name="Rectangle 18"
             width="5.336"
             height="5.336"
             rx="1"
             transform="translate(39.918 0)"
             fill="#4a4a4a" />
          <rect
             id="Rectangle_19"
             data-name="Rectangle 19"
             width="5.336"
             height="5.336"
             rx="1"
             transform="translate(46.242 0)"
             fill="#4a4a4a" />
          <rect
             id="Rectangle_20"
             data-name="Rectangle 20"
             width="5.336"
             height="5.336"
             rx="1"
             transform="translate(52.565 0)"
             fill="#4a4a4a" />
          <rect
             id="Rectangle_21"
             data-name="Rectangle 21"
             width="5.336"
             height="5.336"
             rx="1"
             transform="translate(58.888 0)"
             fill="#4a4a4a" />
          <rect
             id="Rectangle_22"
             data-name="Rectangle 22"
             width="5.336"
             height="5.336"
             rx="1"
             transform="translate(65.212 0)"
             fill="#4a4a4a" />
          <rect
             id="Rectangle_23"
             data-name="Rectangle 23"
             width="5.336"
             height="5.336"
             rx="1"
             transform="translate(71.536 0)"
             fill="#4a4a4a" />
          <rect
             id="Rectangle_24"
             data-name="Rectangle 24"
             width="5.336"
             height="5.336"
             rx="1"
             transform="translate(77.859 0)"
             fill="#4a4a4a" />
          <rect
             id="Rectangle_25"
             data-name="Rectangle 25"
             width="5.336"
             height="5.336"
             rx="1"
             transform="translate(84.183 0)"
             fill="#4a4a4a" />
        </g>
        <g
           id="Group_4"
           data-name="Group 4"
           transform="translate(91.05 9.546) rotate(180)">
          <path
             id="Path_53"
             data-name="Path 53"
             d="M1.093,0H6.219A1.093,1.093,0,0,1,7.312,1.093v3.15A1.093,1.093,0,0,1,6.219,5.336H1.093A1.093,1.093,0,0,1,0,4.243V1.093A1.093,1.093,0,0,1,1.093,0Z"
             transform="translate(0 0)"
             fill="#4a4a4a"
             fill-rule="evenodd" />
          <rect
             id="Rectangle_26"
             data-name="Rectangle 26"
             width="5.336"
             height="5.336"
             rx="1"
             transform="translate(8.299 0)"
             fill="#4a4a4a" />
          <rect
             id="Rectangle_27"
             data-name="Rectangle 27"
             width="5.336"
             height="5.336"
             rx="1"
             transform="translate(14.623 0)"
             fill="#4a4a4a" />
          <rect
             id="Rectangle_28"
             data-name="Rectangle 28"
             width="5.336"
             height="5.336"
             rx="1"
             transform="translate(20.947 0)"
             fill="#4a4a4a" />
          <rect
             id="Rectangle_29"
             data-name="Rectangle 29"
             width="5.336"
             height="5.336"
             rx="1"
             transform="translate(27.271 0)"
             fill="#4a4a4a" />
          <rect
             id="Rectangle_30"
             data-name="Rectangle 30"
             width="5.336"
             height="5.336"
             rx="1"
             transform="translate(33.594 0)"
             fill="#4a4a4a" />
          <rect
             id="Rectangle_31"
             data-name="Rectangle 31"
             width="5.336"
             height="5.336"
             rx="1"
             transform="translate(39.918 0)"
             fill="#4a4a4a" />
          <rect
             id="Rectangle_32"
             data-name="Rectangle 32"
             width="5.336"
             height="5.336"
             rx="1"
             transform="translate(46.242 0)"
             fill="#4a4a4a" />
          <rect
             id="Rectangle_33"
             data-name="Rectangle 33"
             width="5.336"
             height="5.336"
             rx="1"
             transform="translate(52.565 0)"
             fill="#4a4a4a" />
          <rect
             id="Rectangle_34"
             data-name="Rectangle 34"
             width="5.336"
             height="5.336"
             rx="1"
             transform="translate(58.889 0)"
             fill="#4a4a4a" />
          <rect
             id="Rectangle_35"
             data-name="Rectangle 35"
             width="5.336"
             height="5.336"
             rx="1"
             transform="translate(65.213 0)"
             fill="#4a4a4a" />
          <rect
             id="Rectangle_36"
             data-name="Rectangle 36"
             width="5.336"
             height="5.336"
             rx="1"
             transform="translate(71.537 0)"
             fill="#4a4a4a" />
          <rect
             id="Rectangle_37"
             data-name="Rectangle 37"
             width="5.336"
             height="5.336"
             rx="1"
             transform="translate(77.86 0)"
             fill="#4a4a4a" />
          <rect
             id="Rectangle_38"
             data-name="Rectangle 38"
             width="5.336"
             height="5.336"
             rx="1"
             transform="translate(84.183 0)"
             fill="#4a4a4a" />
          <rect
             id="Rectangle_39"
             data-name="Rectangle 39"
             width="5.336"
             height="5.336"
             rx="1"
             transform="translate(8.299 0)"
             fill="#4a4a4a" />
          <rect
             id="Rectangle_40"
             data-name="Rectangle 40"
             width="5.336"
             height="5.336"
             rx="1"
             transform="translate(14.623 0)"
             fill="#4a4a4a" />
          <rect
             id="Rectangle_41"
             data-name="Rectangle 41"
             width="5.336"
             height="5.336"
             rx="1"
             transform="translate(20.947 0)"
             fill="#4a4a4a" />
          <rect
             id="Rectangle_42"
             data-name="Rectangle 42"
             width="5.336"
             height="5.336"
             rx="1"
             transform="translate(27.271 0)"
             fill="#4a4a4a" />
          <rect
             id="Rectangle_43"
             data-name="Rectangle 43"
             width="5.336"
             height="5.336"
             rx="1"
             transform="translate(33.594 0)"
             fill="#4a4a4a" />
          <rect
             id="Rectangle_44"
             data-name="Rectangle 44"
             width="5.336"
             height="5.336"
             rx="1"
             transform="translate(39.918 0)"
             fill="#4a4a4a" />
          <rect
             id="Rectangle_45"
             data-name="Rectangle 45"
             width="5.336"
             height="5.336"
             rx="1"
             transform="translate(46.242 0)"
             fill="#4a4a4a" />
          <rect
             id="Rectangle_46"
             data-name="Rectangle 46"
             width="5.336"
             height="5.336"
             rx="1"
             transform="translate(52.565 0)"
             fill="#4a4a4a" />
          <rect
             id="Rectangle_47"
             data-name="Rectangle 47"
             width="5.336"
             height="5.336"
             rx="1"
             transform="translate(58.889 0)"
             fill="#4a4a4a" />
          <rect
             id="Rectangle_48"
             data-name="Rectangle 48"
             width="5.336"
             height="5.336"
             rx="1"
             transform="translate(65.213 0)"
             fill="#4a4a4a" />
          <rect
             id="Rectangle_49"
             data-name="Rectangle 49"
             width="5.336"
             height="5.336"
             rx="1"
             transform="translate(71.537 0)"
             fill="#4a4a4a" />
          <rect
             id="Rectangle_50"
             data-name="Rectangle 50"
             width="5.336"
             height="5.336"
             rx="1"
             transform="translate(77.86 0)"
             fill="#4a4a4a" />
          <rect
             id="Rectangle_51"
             data-name="Rectangle 51"
             width="5.336"
             height="5.336"
             rx="1"
             transform="translate(84.183 0)"
             fill="#4a4a4a" />
        </g>
        <g
           id="Group_6"
           data-name="Group 6"
           transform="translate(1.531 16.584)">
          <path
             id="Path_54"
             data-name="Path 54"
             d="M1.093,0h7.3A1.093,1.093,0,0,1,9.485,1.093v3.15A1.093,1.093,0,0,1,8.392,5.336h-7.3A1.093,1.093,0,0,1,0,4.243V1.094A1.093,1.093,0,0,1,1.093,0Z"
             transform="translate(0 0)"
             fill="#4a4a4a"
             fill-rule="evenodd" />
          <g
             id="Group_5"
             data-name="Group 5"
             transform="translate(10.671 0)">
            <rect
               id="Rectangle_52"
               data-name="Rectangle 52"
               width="5.336"
               height="5.336"
               rx="1"
               fill="#4a4a4a" />
            <rect
               id="Rectangle_53"
               data-name="Rectangle 53"
               width="5.336"
               height="5.336"
               rx="1"
               transform="translate(6.324 0)"
               fill="#4a4a4a" />
            <rect
               id="Rectangle_54"
               data-name="Rectangle 54"
               width="5.336"
               height="5.336"
               rx="1"
               transform="translate(12.647 0)"
               fill="#4a4a4a" />
            <rect
               id="Rectangle_55"
               data-name="Rectangle 55"
               width="5.336"
               height="5.336"
               rx="1"
               transform="translate(18.971 0)"
               fill="#4a4a4a" />
            <rect
               id="Rectangle_56"
               data-name="Rectangle 56"
               width="5.336"
               height="5.336"
               rx="1"
               transform="translate(25.295 0)"
               fill="#4a4a4a" />
            <rect
               id="Rectangle_57"
               data-name="Rectangle 57"
               width="5.336"
               height="5.336"
               rx="1"
               transform="translate(31.619 0)"
               fill="#4a4a4a" />
            <rect
               id="Rectangle_58"
               data-name="Rectangle 58"
               width="5.336"
               height="5.336"
               rx="1"
               transform="translate(37.942 0)"
               fill="#4a4a4a" />
            <rect
               id="Rectangle_59"
               data-name="Rectangle 59"
               width="5.336"
               height="5.336"
               rx="1"
               transform="translate(44.265 0)"
               fill="#4a4a4a" />
            <rect
               id="Rectangle_60"
               data-name="Rectangle 60"
               width="5.336"
               height="5.336"
               rx="1"
               transform="translate(50.589 0)"
               fill="#4a4a4a" />
            <rect
               id="Rectangle_61"
               data-name="Rectangle 61"
               width="5.336"
               height="5.336"
               rx="1"
               transform="translate(56.912 0)"
               fill="#4a4a4a" />
            <rect
               id="Rectangle_62"
               data-name="Rectangle 62"
               width="5.336"
               height="5.336"
               rx="1"
               transform="translate(63.236 0)"
               fill="#4a4a4a" />
          </g>
          <path
             id="Path_55"
             data-name="Path 55"
             d="M1.094,0H8A1.093,1.093,0,0,1,9.091,1.093v3.15A1.093,1.093,0,0,1,8,5.336H1.093A1.093,1.093,0,0,1,0,4.243V1.094A1.093,1.093,0,0,1,1.093,0Z"
             transform="translate(80.428 0)"
             fill="#4a4a4a"
             fill-rule="evenodd" />
        </g>
        <g
           id="Group_7"
           data-name="Group 7"
           transform="translate(1.531 29.627)">
          <rect
             id="Rectangle_63"
             data-name="Rectangle 63"
             width="5.336"
             height="5.336"
             rx="1"
             transform="translate(0 0)"
             fill="#4a4a4a" />
          <rect
             id="Rectangle_64"
             data-name="Rectangle 64"
             width="5.336"
             height="5.336"
             rx="1"
             transform="translate(6.324 0)"
             fill="#4a4a4a" />
          <rect
             id="Rectangle_65"
             data-name="Rectangle 65"
             width="5.336"
             height="5.336"
             rx="1"
             transform="translate(12.647 0)"
             fill="#4a4a4a" />
          <rect
             id="Rectangle_66"
             data-name="Rectangle 66"
             width="5.336"
             height="5.336"
             rx="1"
             transform="translate(18.971 0)"
             fill="#4a4a4a" />
          <path
             id="Path_56"
             data-name="Path 56"
             d="M1.093,0H31.515a1.093,1.093,0,0,1,1.093,1.093V4.244a1.093,1.093,0,0,1-1.093,1.093H1.093A1.093,1.093,0,0,1,0,4.244V1.093A1.093,1.093,0,0,1,1.093,0ZM34.687,0h3.942a1.093,1.093,0,0,1,1.093,1.093V4.244a1.093,1.093,0,0,1-1.093,1.093H34.687a1.093,1.093,0,0,1-1.093-1.093V1.093A1.093,1.093,0,0,1,34.687,0Z"
             transform="translate(25.294 0)"
             fill="#4a4a4a"
             fill-rule="evenodd" />
          <rect
             id="Rectangle_67"
             data-name="Rectangle 67"
             width="5.336"
             height="5.336"
             rx="1"
             transform="translate(66.003 0)"
             fill="#4a4a4a" />
          <rect
             id="Rectangle_68"
             data-name="Rectangle 68"
             width="5.336"
             height="5.336"
             rx="1"
             transform="translate(72.327 0)"
             fill="#4a4a4a" />
          <rect
             id="Rectangle_69"
             data-name="Rectangle 69"
             width="5.336"
             height="5.336"
             rx="1"
             transform="translate(84.183 0)"
             fill="#4a4a4a" />
          <path
             id="Path_57"
             data-name="Path 57"
             d="M5.336,0V1.18A1.093,1.093,0,0,1,4.243,2.273H1.093A1.093,1.093,0,0,1,0,1.18V0Z"
             transform="translate(83.59 2.273) rotate(180)"
             fill="#4a4a4a" />
          <path
             id="Path_58"
             data-name="Path 58"
             d="M5.336,0V1.18A1.093,1.093,0,0,1,4.243,2.273H1.093A1.093,1.093,0,0,1,0,1.18V0Z"
             transform="translate(78.255 3.063)"
             fill="#4a4a4a" />
        </g>
        <rect
           id="Rectangle_70"
           data-name="Rectangle 70"
           width="88.927"
           height="2.371"
           rx="1.085"
           transform="translate(1.925 1.17)"
           fill="#4a4a4a" />
        <rect
           id="Rectangle_71"
           data-name="Rectangle 71"
           width="4.986"
           height="1.581"
           rx="0.723"
           transform="translate(4.1 1.566)"
           fill="#d8d8d8"
           opacity="0.136" />
        <rect
           id="Rectangle_72"
           data-name="Rectangle 72"
           width="4.986"
           height="1.581"
           rx="0.723"
           transform="translate(10.923 1.566)"
           fill="#d8d8d8"
           opacity="0.136" />
        <rect
           id="Rectangle_73"
           data-name="Rectangle 73"
           width="4.986"
           height="1.581"
           rx="0.723"
           transform="translate(16.173 1.566)"
           fill="#d8d8d8"
           opacity="0.136" />
        <rect
           id="Rectangle_74"
           data-name="Rectangle 74"
           width="4.986"
           height="1.581"
           rx="0.723"
           transform="translate(21.421 1.566)"
           fill="#d8d8d8"
           opacity="0.136" />
        <rect
           id="Rectangle_75"
           data-name="Rectangle 75"
           width="4.986"
           height="1.581"
           rx="0.723"
           transform="translate(26.671 1.566)"
           fill="#d8d8d8"
           opacity="0.136" />
        <rect
           id="Rectangle_76"
           data-name="Rectangle 76"
           width="4.986"
           height="1.581"
           rx="0.723"
           transform="translate(33.232 1.566)"
           fill="#d8d8d8"
           opacity="0.136" />
        <rect
           id="Rectangle_77"
           data-name="Rectangle 77"
           width="4.986"
           height="1.581"
           rx="0.723"
           transform="translate(38.48 1.566)"
           fill="#d8d8d8"
           opacity="0.136" />
        <rect
           id="Rectangle_78"
           data-name="Rectangle 78"
           width="4.986"
           height="1.581"
           rx="0.723"
           transform="translate(43.73 1.566)"
           fill="#d8d8d8"
           opacity="0.136" />
        <rect
           id="Rectangle_79"
           data-name="Rectangle 79"
           width="4.986"
           height="1.581"
           rx="0.723"
           transform="translate(48.978 1.566)"
           fill="#d8d8d8"
           opacity="0.136" />
        <rect
           id="Rectangle_80"
           data-name="Rectangle 80"
           width="4.986"
           height="1.581"
           rx="0.723"
           transform="translate(55.54 1.566)"
           fill="#d8d8d8"
           opacity="0.136" />
        <rect
           id="Rectangle_81"
           data-name="Rectangle 81"
           width="4.986"
           height="1.581"
           rx="0.723"
           transform="translate(60.788 1.566)"
           fill="#d8d8d8"
           opacity="0.136" />
        <rect
           id="Rectangle_82"
           data-name="Rectangle 82"
           width="4.986"
           height="1.581"
           rx="0.723"
           transform="translate(66.038 1.566)"
           fill="#d8d8d8"
           opacity="0.136" />
        <rect
           id="Rectangle_83"
           data-name="Rectangle 83"
           width="4.986"
           height="1.581"
           rx="0.723"
           transform="translate(72.599 1.566)"
           fill="#d8d8d8"
           opacity="0.136" />
        <rect
           id="Rectangle_84"
           data-name="Rectangle 84"
           width="4.986"
           height="1.581"
           rx="0.723"
           transform="translate(77.847 1.566)"
           fill="#d8d8d8"
           opacity="0.136" />
        <rect
           id="Rectangle_85"
           data-name="Rectangle 85"
           width="4.986"
           height="1.581"
           rx="0.723"
           transform="translate(83.097 1.566)"
           fill="#d8d8d8"
           opacity="0.136" />
      </g>
      <path
         id="Path_59"
         data-name="Path 59"
         d="M146.71,159.855a5.439,5.439,0,0,0-.7.07c-.042-.164-.081-.329-.127-.493a5.457,5.457,0,1,0-5.4-9.372q-.181-.185-.366-.367a5.454,5.454,0,1,0-9.384-5.4c-.162-.046-.325-.084-.486-.126a5.467,5.467,0,1,0-10.788,0c-.162.042-.325.08-.486.126a5.457,5.457,0,1,0-9.384,5.4,21.843,21.843,0,1,0,36.421,21.02,5.452,5.452,0,1,0,.7-10.858"
         transform="translate(6.275 -6.025)"
         fill="#44d860"
         fill-rule="evenodd" />
      <path
         id="Path_60"
         data-name="Path 60"
         d="M83,124.855h43.71V103H83Z"
         transform="translate(4.42 -9.271)"
         fill="#3ecc5f"
         fill-rule="evenodd" />
      <path
         id="Path_61"
         data-name="Path 61"
         d="M134.855,116.765a2.732,2.732,0,1,0,0-5.464,2.811,2.811,0,0,0-.349.035c-.022-.082-.04-.164-.063-.246a2.733,2.733,0,0,0-1.052-5.253,2.7,2.7,0,0,0-1.648.566q-.09-.093-.184-.184a2.7,2.7,0,0,0,.553-1.633,2.732,2.732,0,0,0-5.245-1.07,10.928,10.928,0,1,0,0,21.031,2.732,2.732,0,0,0,5.245-1.07,2.7,2.7,0,0,0-.553-1.633q.093-.09.184-.184a2.7,2.7,0,0,0,1.648.566,2.732,2.732,0,0,0,1.052-5.253c.023-.081.042-.164.063-.246a2.811,2.811,0,0,0,.349.035"
         transform="translate(7.202 -9.377)"
         fill="#44d860"
         fill-rule="evenodd" />
      <path
         id="Path_62"
         data-name="Path 62"
         d="M143.232,42.33a2.967,2.967,0,0,1-.535-.055,2.754,2.754,0,0,1-.514-.153,2.838,2.838,0,0,1-.471-.251,4.139,4.139,0,0,1-.415-.339,3.2,3.2,0,0,1-.338-.415A2.7,2.7,0,0,1,140.5,39.6a2.968,2.968,0,0,1,.055-.535,3.152,3.152,0,0,1,.152-.514,2.874,2.874,0,0,1,.252-.47,2.633,2.633,0,0,1,.753-.754,2.837,2.837,0,0,1,.471-.251,2.753,2.753,0,0,1,.514-.153,2.527,2.527,0,0,1,1.071,0,2.654,2.654,0,0,1,.983.4,4.139,4.139,0,0,1,.415.339,4.019,4.019,0,0,1,.339.415,2.786,2.786,0,0,1,.251.47,2.864,2.864,0,0,1,.208,1.049,2.77,2.77,0,0,1-.8,1.934,4.139,4.139,0,0,1-.415.339,2.722,2.722,0,0,1-1.519.459m21.855-1.366a2.789,2.789,0,0,1-1.935-.8,4.162,4.162,0,0,1-.338-.415,2.7,2.7,0,0,1-.459-1.519,2.789,2.789,0,0,1,.8-1.934,4.139,4.139,0,0,1,.415-.339,2.838,2.838,0,0,1,.471-.251,2.752,2.752,0,0,1,.514-.153,2.527,2.527,0,0,1,1.071,0,2.654,2.654,0,0,1,.983.4,4.139,4.139,0,0,1,.415.339,2.79,2.79,0,0,1,.8,1.934,3.069,3.069,0,0,1-.055.535,2.779,2.779,0,0,1-.153.514,3.885,3.885,0,0,1-.251.47,4.02,4.02,0,0,1-.339.415,4.138,4.138,0,0,1-.415.339,2.722,2.722,0,0,1-1.519.459"
         transform="translate(9.753 -15.532)"
         fill-rule="evenodd" />
    </g>
  </g>
  <path
     style="fill:#999999;stroke-width:0.682502"
     d="m 282.60175,618.34678 c -11.29235,-0.32264 -12.13227,-0.44073 -15.3996,-2.16512 -4.17237,-2.20202 -8.07845,-6.37184 -10.01074,-10.68662 -1.81224,-4.04673 -1.98672,-12.20406 -0.34193,-15.98561 l 1.11392,-2.56103 3.27602,3.27272 c 3.87875,3.87482 8.2113,6.12292 12.86386,6.67488 l 3.3797,0.40095 -3.28562,-2.12985 c -4.10596,-2.66162 -4.07975,-4.2796 0.11487,-7.09153 l 2.97177,-1.99216 -3.14239,-1.95587 c -4.50356,-2.80309 -4.30908,-4.42449 0.90161,-7.51656 l 2.33774,-1.38724 -3.19087,-1.98606 c -4.42273,-2.75277 -4.31443,-4.50394 0.45796,-7.40523 l 2.62508,-1.59586 -3.13696,-1.9525 c -3.6017,-2.24176 -4.02088,-3.9927 -1.3987,-5.84251 5.13425,-3.62191 5.00421,-3.28118 1.86373,-4.88333 -1.55113,-0.79133 -3.03548,-2.11697 -3.29856,-2.94587 -0.48146,-1.51694 0.1999,-2.3238 4.55786,-5.39738 l 1.53175,-1.08031 -2.84784,-1.60057 c -4.7964,-2.69573 -4.57455,-4.0846 1.31609,-8.23915 l 1.53175,-1.08031 -2.84784,-1.60057 c -4.79192,-2.69322 -4.5714,-4.09031 1.2983,-8.22539 1.50903,-1.06308 1.50362,-1.0726 -1.66477,-2.9294 -4.39137,-2.57351 -4.2924,-4.33227 0.40441,-7.1864 1.40766,-0.85539 2.55938,-1.67754 2.55938,-1.82698 0,-0.14944 -1.20766,-0.88782 -2.6837,-1.64084 -1.47603,-0.75301 -2.88701,-1.69809 -3.13551,-2.10017 -0.72603,-1.17474 0.25735,-3.93995 1.55516,-4.37301 0.65604,-0.21891 1.93857,-0.97303 2.85007,-1.67581 l 1.65728,-1.2778 -2.80535,-1.43118 c -1.54294,-0.78715 -3.00866,-1.76015 -3.25716,-2.16223 -0.72603,-1.17474 0.25735,-3.93995 1.55516,-4.37301 0.65604,-0.21891 1.93857,-0.97303 2.85007,-1.67581 l 1.65728,-1.2778 -2.80535,-1.43118 c -1.54294,-0.78715 -3.00866,-1.76015 -3.25716,-2.16223 -0.72603,-1.17474 0.25735,-3.93995 1.55516,-4.37301 0.65604,-0.21891 1.93857,-0.97303 2.85007,-1.67581 l 1.65728,-1.2778 -2.80203,-1.42949 c -1.54112,-0.78622 -3.01728,-2.10768 -3.28036,-2.93657 -0.48244,-1.52004 0.18583,-2.30908 4.59686,-5.42755 l 1.57075,-1.11048 -2.91462,-3.162 c -2.44889,-2.65673 -2.79986,-3.37643 -2.19641,-4.50398 0.40071,-0.74874 2.14457,-1.7579 3.94474,-2.28281 1.77459,-0.51745 3.21133,-1.21576 3.19275,-1.55181 -0.0186,-0.33604 -0.28784,-2.09674 -0.59834,-3.91266 -0.76043,-4.44723 0.32756,-5.6623 4.12579,-4.60769 4.2602,1.18289 4.74571,0.99855 5.68256,-2.15754 1.65377,-5.57127 3.0812,-5.89897 7.43248,-1.70626 1.80814,1.74225 3.13148,2.573 3.31369,2.08023 0.16684,-0.45123 0.98593,-1.8333 1.82019,-3.07126 2.51578,-3.73316 5.56655,-2.59627 8.24153,3.07126 0.30154,0.63888 0.4729,0.63888 0.77444,0 1.46496,-3.10384 3.57931,-5.32211 5.07279,-5.32211 1.49348,0 3.60784,2.21827 5.0728,5.32211 0.30154,0.63888 0.4729,0.63888 0.77444,0 1.16126,-2.46038 3.56953,-5.34251 4.6357,-5.54784 1.52788,-0.29424 3.47308,1.42277 4.54579,4.01252 l 0.82091,1.98186 52.30598,0.18694 52.30598,0.18693 3.38371,1.67746 c 4.5384,2.24988 8.32292,6.17214 10.4669,10.84784 1.47438,3.21541 1.81633,5.1192 2.06167,11.4785 l 0.29412,7.62377 -2.98443,0.38062 c -1.64145,0.20935 -18.64786,1.31563 -37.79204,2.4584 -19.14418,1.14277 -35.98416,2.25566 -37.42218,2.47308 -2.89426,0.4376 -6.78094,3.45112 -8.34031,6.46662 -2.76551,5.34789 0.22333,13.64595 5.70508,15.83931 2.09251,0.83726 10.12384,1.55426 33.01384,2.94732 16.63675,1.01249 30.48417,2.04232 30.77206,2.2885 0.28788,0.24618 -8.31165,2.78174 -19.11005,5.63458 -17.29085,4.56808 -20.52927,5.22425 -27.14101,5.49929 -8.1199,0.33778 -11.31982,1.2759 -15.35629,4.50198 -1.31382,1.05005 -3.61726,2.30919 -5.11876,2.7981 -2.981,0.97065 -3.81572,1.78302 -3.27635,3.18861 0.2754,0.71769 2.97598,0.91502 12.52286,0.91502 7.37828,0 12.33786,-0.26879 12.59355,-0.68251 1.10875,-1.79399 4.7789,0.57526 4.11779,2.65824 -0.28278,0.89097 0.0573,1.14334 1.51246,1.12246 1.45051,-0.0208 1.92797,0.3307 2.10028,1.54626 0.12266,0.86526 -0.14529,2.01698 -0.59544,2.55938 -0.6552,0.78947 -0.60237,0.98619 0.26485,0.98619 1.35347,0 2.62914,2.27229 2.07962,3.70432 -0.22651,0.59026 -0.83965,1.07319 -1.36256,1.07319 -1.14225,0 -1.17816,0.34728 -0.22087,2.136 0.93512,1.74729 -0.25626,3.32402 -2.51164,3.32402 -1.23874,0 -1.57679,0.33503 -1.45206,1.43905 0.22866,2.02394 -1.81164,3.24319 -3.57956,2.13911 -0.95149,-0.59421 -5.03903,-0.84815 -13.6524,-0.84815 h -12.2943 v 11.26128 11.26128 h 3.32895 c 2.12644,0 3.63585,-0.36981 4.17858,-1.02375 0.4792,-0.57741 1.96701,-1.02375 3.41251,-1.02375 1.44549,0 2.9333,0.44634 3.41251,1.02375 1.23141,1.48376 1.98924,1.26587 2.77373,-0.7975 1.87119,-4.92162 7.30236,-4.99032 9.48288,-0.11997 1.16462,2.60127 1.19013,2.61459 2.41478,1.26137 0.81253,-0.89783 2.10285,-1.36765 3.75616,-1.36765 4.05114,0 5.94949,3.14353 4.49303,7.44013 -0.48324,1.42558 -0.38984,1.5696 0.7176,1.10662 2.76973,-1.15794 4.10297,-1.08434 5.89523,0.32545 2.34718,1.84629 2.55657,5.44794 0.4398,7.56472 -0.78204,0.78203 -1.31951,1.47307 -1.19438,1.53563 3.40511,1.70255 4.46454,2.50861 5.3295,4.0549 0.93295,1.66783 0.93231,2.05414 -0.006,3.73699 -0.57573,1.03229 -2.0273,2.19717 -3.22571,2.58863 -1.71756,0.56105 -2.62576,1.60596 -4.28924,4.93489 -2.51365,5.03024 -6.29873,8.474 -11.51791,10.4793 -3.75478,1.44264 -4.47465,1.46415 -51.58306,1.54109 -26.27645,0.0429 -53.14997,-0.0755 -59.71905,-0.26322 z M 300.8184,478.95541 c 0.30368,-0.46391 1.01284,-2.20225 1.57591,-3.86299 1.29559,-3.82129 3.7852,-5.71721 7.50752,-5.71721 3.843,0 6.22445,1.89303 7.54798,5.99994 1.22838,3.81168 2.75958,5.15047 4.56643,3.99264 0.88283,-0.56572 1.18795,-1.65569 1.16974,-4.17859 -0.0877,-12.15517 -17.762,-16.68324 -24.6271,-6.30936 -2.06262,3.11683 -2.92177,8.33228 -1.62916,9.88978 1.03322,1.24495 3.12975,1.34511 3.88868,0.18579 z m 109.86303,-15.95042 c 0.83408,-1.26285 0.79111,-1.6332 -0.35349,-3.04672 -1.15207,-1.42275 -1.50988,-1.51484 -3.08941,-0.79517 -1.18013,0.53771 -1.78643,1.35168 -1.78643,2.39834 0,3.29756 3.38724,4.23259 5.22933,1.44355 z m 21.84006,-1.36501 c 0.83408,-1.26284 0.79111,-1.6332 -0.35348,-3.04671 -1.15207,-1.42275 -1.50989,-1.51485 -3.08942,-0.79517 -1.18012,0.5377 -1.78643,1.35168 -1.78643,2.39834 0,3.29755 3.38724,4.23259 5.22933,1.44354 z"
     id="path170" />
  <path
     style="fill:#e66700;stroke-width:0.682502;fill-opacity:1"
     d="m 275.09423,617.70466 c -6.33793,-0.58078 -9.72472,-2.26411 -13.90103,-6.90918 -3.97795,-4.42444 -5.51408,-9.1761 -5.05242,-15.62848 0.17761,-2.48231 0.69405,-5.20674 1.14765,-6.0543 0.81818,-1.52879 0.8542,-1.51408 4.54003,1.85456 4.0351,3.68786 10.10445,6.42718 13.48393,6.08579 l 2.03025,-0.20509 -2.65984,-1.70935 c -3.7116,-2.38528 -3.80649,-4.22827 -0.34117,-6.62632 1.51156,-1.04602 2.75996,-2.07308 2.7742,-2.28235 0.0143,-0.20927 -1.35616,-1.35466 -3.04535,-2.54532 -1.6892,-1.19065 -3.07126,-2.45634 -3.07126,-2.81264 0,-0.88671 1.6944,-2.50706 4.11984,-3.93981 1.11247,-0.65715 2.02267,-1.41068 2.02267,-1.67451 0,-0.26383 -1.04041,-1.12269 -2.31203,-1.90859 -4.65996,-2.88002 -4.69239,-4.77572 -0.1238,-7.23607 1.33971,-0.72148 2.43583,-1.52402 2.43583,-1.78342 0,-0.25939 -1.07882,-1.13838 -2.39739,-1.9533 -4.10151,-2.53488 -4.18419,-3.57702 -0.52859,-6.66262 l 3.19724,-2.69872 -2.86564,-1.80899 c -1.5761,-0.99495 -2.87039,-2.34261 -2.8762,-2.99481 -0.006,-0.65221 1.29947,-2.3589 2.90063,-3.79268 1.60116,-1.43377 2.60408,-2.74027 2.2287,-2.90334 -2.61164,-1.13451 -5.12043,-3.19141 -5.12933,-4.20542 -0.006,-0.66243 1.29947,-2.3775 2.90063,-3.81127 1.60116,-1.43377 2.60408,-2.74027 2.2287,-2.90334 -2.61164,-1.13451 -5.12043,-3.19141 -5.12933,-4.20542 -0.006,-0.66243 1.28106,-2.31544 2.85971,-3.67336 l 2.87028,-2.46894 -2.80234,-1.76904 c -1.54129,-0.97297 -2.98272,-2.0609 -3.20318,-2.4176 -0.71915,-1.16362 0.33669,-2.67134 3.19562,-4.56329 3.12494,-2.06799 3.25621,-1.6846 -1.79344,-5.23797 -2.2364,-1.57372 -1.69718,-3.37209 1.6815,-5.60799 2.96177,-1.96 3.29858,-2.81366 1.35371,-3.43094 -0.7198,-0.22845 -2.07318,-1.0167 -3.00752,-1.75165 -2.2369,-1.75954 -1.7371,-3.49344 1.65381,-5.73744 2.96177,-1.96001 3.29858,-2.81366 1.35371,-3.43094 -0.7198,-0.22846 -2.07318,-1.0167 -3.00752,-1.75165 -2.2369,-1.75954 -1.7371,-3.49344 1.65381,-5.73745 1.46434,-0.96905 2.6616,-1.98789 2.66059,-2.2641 -10e-4,-0.27621 -1.15274,-1.11645 -2.55938,-1.8672 -3.70576,-1.97783 -3.69347,-3.79624 0.0446,-6.60214 l 3.02466,-2.27038 -2.71283,-3.24964 c -1.54346,-1.84887 -2.54944,-3.67543 -2.33378,-4.23744 0.20848,-0.54329 1.85242,-1.69152 3.65319,-2.55163 l 3.27412,-1.56383 -0.23895,-4.36152 -0.23894,-4.36152 4.06122,0.45947 c 4.42906,0.50109 5.1654,0.11657 5.97821,-3.12192 0.25163,-1.00256 1.00141,-2.31506 1.66618,-2.91667 1.12172,-1.01514 1.46831,-0.89874 4.81783,1.61804 l 3.60915,2.71187 1.95009,-2.69202 c 1.09361,-1.50968 2.52107,-2.69202 3.25014,-2.69202 1.19679,0 4.14677,2.84205 5.10988,4.92292 0.33145,0.71613 0.48161,0.71613 0.81306,0 0.96648,-2.08815 3.9151,-4.92292 5.12064,-4.92292 0.75748,0 2.10038,1.1415 3.18121,2.70411 1.02872,1.48725 2.02396,2.7041 2.21165,2.7041 0.18769,0 1.19709,-1.23673 2.24311,-2.7483 2.35266,-3.39974 4.2432,-3.36189 6.49844,0.13008 l 1.58148,2.44875 30.78189,0.45189 c 16.93003,0.24854 40.57172,0.45189 52.53708,0.45189 24.23218,0 23.68688,-0.0919 29.57134,4.98492 4.39241,3.78957 6.46929,8.32548 7.1814,15.6842 0.33476,3.45934 0.61697,7.24255 0.62714,8.40715 l 0.0185,2.11744 -5.63065,0.42294 c -3.09685,0.23261 -20.52624,1.36207 -38.73198,2.50989 -18.20574,1.14783 -34.07484,2.40056 -35.26467,2.78385 -1.18983,0.3833 -3.41649,2.05642 -4.94814,3.71807 -2.52921,2.74387 -2.78482,3.35383 -2.78482,6.64556 0,4.4718 2.23035,9.20208 5.11877,10.85625 2.76814,1.5853 10.00146,2.38626 38.79208,4.29555 13.45276,0.89213 24.59282,1.75532 24.7557,1.91822 0.35787,0.35786 -16.59239,5.11301 -28.39893,7.9669 -4.6922,1.1342 -11.90966,2.35874 -16.0388,2.72119 -8.38498,0.73602 -11.25379,1.51343 -14.51197,3.93255 -1.22482,0.9094 -3.91217,2.39874 -5.9719,3.30965 -3.71132,1.64132 -4.74646,3.19056 -2.66537,3.98914 1.72561,0.66219 23.73067,0.45732 24.81873,-0.23106 1.37826,-0.87198 3.30591,0.30411 3.57224,2.17947 0.1436,1.01118 0.76702,1.6148 1.82201,1.76414 1.38021,0.19538 1.56695,0.54186 1.33997,2.48614 -0.1902,1.62928 0.0762,2.47143 0.95567,3.02065 1.49069,0.93095 1.60264,3.37575 0.17958,3.92183 -0.77363,0.29687 -0.93037,0.98242 -0.61229,2.67796 0.38563,2.05558 0.24808,2.32399 -1.40335,2.73847 -1.00698,0.25274 -2.06802,1.10058 -2.35787,1.8841 -0.51503,1.39229 -0.85429,1.41983 -14.96063,1.21444 l -14.43364,-0.21015 v 11.3242 11.32421 h 3.04811 c 1.67645,0 4.13346,-0.51757 5.46001,-1.15016 2.26174,-1.07855 2.56209,-1.07855 4.82383,0 1.32655,0.63259 2.52472,1.15016 2.66259,1.15016 0.13787,0 0.87906,-1.06502 1.64708,-2.36671 2.47159,-4.18904 7.01361,-3.73582 8.93014,0.89108 l 0.84608,2.04262 2.26518,-1.33649 c 4.28786,-2.5299 8.36048,0.0619 7.59724,4.83487 l -0.43737,2.73521 2.96679,-0.40664 c 2.67567,-0.36674 3.11535,-0.21776 4.48095,1.51831 1.65614,2.10545 1.50268,4.44833 -0.43199,6.5951 -0.59408,0.65921 -0.95406,1.28964 -0.79996,1.40095 0.15411,0.11131 1.12052,0.72795 2.14757,1.37032 4.71896,2.95146 4.68671,5.93741 -0.0968,8.95708 -1.55216,0.97984 -3.44599,3.13238 -4.68064,5.32006 -2.42913,4.30418 -6.0225,7.65465 -10.36408,9.6635 -3.07259,1.42168 -3.70312,1.43802 -58.72985,1.52122 -30.59315,0.0463 -57.92735,-0.12697 -60.74267,-0.38497 z m 27.59773,-142.33947 c 2.14206,-4.19216 4.12607,-5.78372 7.20987,-5.78372 3.10028,0 5.06496,1.58594 7.16627,5.7848 1.67509,3.34719 2.35486,4.09136 3.73732,4.09136 2.09512,0 3.13449,-2.49507 2.48394,-5.96279 -1.78929,-9.53774 -14.74539,-13.90569 -22.32614,-7.52691 -5.24697,4.41503 -6.4806,14.39534 -1.69174,13.68648 0.8452,-0.12511 2.091,-1.68732 3.42048,-4.28922 z m 107.91506,-11.98631 c 1.36956,-1.51334 0.94985,-2.94309 -1.27614,-4.34721 -2.43058,-1.53317 -5.08087,2.45762 -3.1651,4.76598 1.15627,1.39321 2.9549,1.22362 4.44124,-0.41877 z m 21.84006,-1.365 c 1.36956,-1.51335 0.94985,-2.94309 -1.27614,-4.34721 -2.43057,-1.53317 -5.08087,2.45761 -3.1651,4.76597 1.15627,1.39322 2.9549,1.22362 4.44124,-0.41876 z"
     id="path172" />
  <path
     style="fill:#ff9955;stroke-width:0.341251;fill-opacity:1"
     d="m 392.87604,618.0027 c 6.09542,-1.95093 11.6946,-7.07618 13.83971,-12.66827 0.78637,-2.05 1.32633,-2.62017 2.73092,-2.88368 1.41957,-0.26631 3.31033,-1.84785 3.89413,-3.25727 l 0.4247,-1.02532 h 11.1781 c 9.78271,0 11.2341,-0.0675 11.62666,-0.54048 0.32544,-0.39214 0.35015,-0.69655 0.09,-1.10907 -0.32085,-0.50883 -1.54294,-0.57803 -11.62854,-0.65845 l -11.27003,-0.0899 -0.4082,-0.9855 c -0.59486,-1.43611 -1.8063,-2.43704 -3.74322,-3.09276 l -1.70709,-0.5779 0.98775,-0.73029 c 0.54327,-0.40165 1.18347,-1.2715 1.42267,-1.933 l 0.43491,-1.20273 h 12.87599 c 12.67685,0 12.87942,-0.0108 13.0978,-0.69887 0.5275,-1.662 0.30777,-1.68988 -13.31877,-1.68988 h -12.71814 l -0.2075,-0.82676 c -0.31493,-1.25476 -2.12368,-2.86527 -3.69238,-3.28768 -1.33353,-0.35908 -2.70512,-0.19671 -4.44782,0.52653 -0.55136,0.22883 -0.55785,0.17484 -0.0874,-0.72715 0.27949,-0.53588 0.5091,-1.70231 0.51026,-2.59206 l 0.002,-1.61773 16.76948,-0.0885 c 15.21938,-0.0803 16.80264,-0.14109 17.12808,-0.65712 0.26019,-0.41257 0.2355,-0.71689 -0.09,-1.10906 -0.39858,-0.48026 -2.39422,-0.54048 -17.90905,-0.54048 -16.78675,0 -17.51214,-0.0263 -18.79917,-0.68251 -0.73628,-0.37537 -1.888,-0.6825 -2.55938,-0.6825 -0.67139,0 -1.82311,0.30713 -2.55939,0.6825 -2.02628,1.03306 -2.67162,0.90386 -3.36788,-0.67425 -1.76215,-3.994 -7.61591,-4.12786 -9.79407,-0.22396 -1.12106,2.00927 -1.68567,2.36531 -2.53559,1.59893 -2.14305,-1.93243 -4.99556,-1.87006 -7.41054,0.16201 -0.90236,0.75929 -1.30658,0.84353 -4.04755,0.84353 h -3.04508 v -10.76176 -10.76177 l 3.29982,0.0977 3.29981,0.0977 1.22176,4.59382 c 1.04757,3.93885 1.34713,4.66418 2.10104,5.08733 0.81839,0.45933 2.08474,0.17076 18.28718,-4.16726 l 17.40791,-4.66076 h 12.98081 c 11.42752,0 13.03448,-0.0647 13.42937,-0.54048 0.32528,-0.39194 0.3501,-0.69674 0.0903,-1.10907 -0.3133,-0.49725 -1.40258,-0.58999 -8.68212,-0.73921 l -8.32386,-0.17062 16.03879,-4.29369 16.0388,-4.29368 0.0892,27.49875 c 0.10086,31.11059 0.11973,30.82248 -2.34844,35.8594 -1.89855,3.87446 -5.76825,7.79283 -9.51387,9.6335 -4.69871,2.30905 -4.60895,2.30171 -27.98258,2.28689 -20.56821,-0.013 -20.9493,-0.0254 -19.10041,-0.61712 z m 43.69422,-53.13512 c 0.3255,-0.3922 0.35017,-0.69647 0.0899,-1.10907 -0.32919,-0.52191 -2.65856,-0.57575 -28.37629,-0.65587 l -28.01766,-0.0873 -0.378,0.7063 c -0.92852,1.73496 -1.7441,1.68642 28.33445,1.68642 25.03905,0 27.94499,-0.0554 28.34757,-0.54048 z"
     id="path174" />
  <path
     style="fill:#e66700;fill-opacity:1;stroke-width:0.341251"
     d="m 437.22902,618.65642 c -2.30825,-0.16579 -2.43517,-0.21021 -1.29348,-0.45264 0.69625,-0.14786 2.539,-0.90214 4.09501,-1.6762 3.86067,-1.92054 7.82494,-5.83989 9.59563,-9.4869 2.32915,-4.79726 2.3731,-5.15102 2.53315,-20.38974 0.15569,-14.82354 0.0794,-14.28711 1.89874,-13.35241 2.64762,1.36025 3.69152,3.79356 2.79859,6.52352 -0.30584,0.93504 -0.4942,1.76194 -0.4186,1.83755 0.0756,0.0756 0.69359,-0.0949 1.37329,-0.37889 1.66978,-0.69768 2.8141,-0.6498 4.54963,0.19036 1.89737,0.9185 2.851,2.46573 2.84935,4.62296 -10e-4,1.86763 -0.82114,3.51285 -2.20057,4.41668 -1.20695,0.79083 -1.09318,1.0538 0.55136,1.27438 1.55647,0.20877 2.76385,0.96801 3.84753,2.41948 0.97997,1.31256 0.97457,4.23032 -0.0103,5.5595 -1.04677,1.41273 -2.8153,2.4991 -4.06838,2.4991 -1.02604,0 -1.14544,0.12891 -1.81737,1.96219 -1.16755,3.18548 -3.13536,6.15029 -5.68699,8.56831 -4.86512,4.61037 -10.64844,6.43362 -18.5966,5.86275 z"
     id="path999" />
  <path
     style="fill:#e66700;fill-opacity:1;stroke-width:0.341251"
     d="m 455.73435,553.64798 c -0.80681,-0.67889 -1.23736,-0.80125 -2.24431,-0.63785 l -1.24598,0.2022 v -4.96633 -4.96632 l 1.10907,-0.34524 c 0.60999,-0.18988 2.64469,-0.75397 4.52158,-1.25352 1.87688,-0.49955 3.84008,-1.16015 4.36267,-1.46798 0.85413,-0.50313 1.04275,-0.50774 1.86613,-0.0456 1.26449,0.70974 1.72664,2.41473 0.96826,3.57216 -0.3155,0.48153 -1.02736,0.96624 -1.58191,1.07715 -1.18848,0.2377 -1.24351,0.44574 -0.32576,1.23154 0.93303,0.79889 0.91153,2.75078 -0.0408,3.70311 -0.59669,0.59669 -0.98303,0.68769 -2.20715,0.51991 -1.47191,-0.20175 -1.48082,-0.1967 -1.10582,0.62633 0.69934,1.53488 -0.79378,3.59048 -2.608,3.59048 -0.2583,0 -0.91889,-0.37802 -1.46798,-0.84005 z"
     id="path1001" />
  <path
     style="fill:#ff6600;fill-opacity:1;stroke-width:0.0853127"
     d="m 275.51356,618.79858 c -5.74822,-0.44703 -11.16789,-3.15899 -14.84706,-7.42937 -4.4596,-5.17621 -6.2522,-11.93727 -4.93402,-18.60938 0.4006,-2.02768 1.25355,-4.39838 2.17663,-6.04981 l 0.30176,-0.53986 0.51442,0.7958 c 0.28293,0.43769 0.75926,1.11313 1.05851,1.50098 0.29925,0.38786 0.54409,0.73286 0.54409,0.76668 0,0.0338 -0.53502,-0.47252 -1.18893,-1.12518 l -1.18893,-1.18665 -0.22456,0.50529 c -1.37527,3.09456 -1.62571,3.947 -1.8902,6.43393 -0.0997,0.93784 -0.12079,1.79562 -0.0869,3.54108 0.091,4.68785 0.77529,7.37064 2.65359,10.40294 1.79744,2.90174 4.4481,5.64787 7.1727,7.43104 1.61463,1.05673 3.39404,1.91097 4.69265,2.2528 3.62656,0.95462 13.2539,1.12013 65.00786,1.11763 43.33718,-0.002 51.54109,-0.0989 55.44815,-0.65426 2.72194,-0.3869 6.31853,-2.0364 8.96271,-4.11057 0.88665,-0.69551 2.81528,-2.67511 3.50732,-3.60001 0.88042,-1.17668 1.31378,-1.88191 2.347,-3.81941 0.87772,-1.6459 1.33047,-2.37594 1.41875,-2.28766 0.0573,0.0573 -0.36313,1.138 -0.84668,2.17604 -1.14451,2.45689 -3.0567,5.05316 -5.01847,6.81379 -3.68214,3.30462 -8.12174,5.23237 -12.99351,5.64198 -0.76802,0.0646 -17.58831,0.0874 -56.64766,0.0769 -30.5554,-0.008 -55.72804,-0.0283 -55.93919,-0.0448 z"
     id="path1003" />
  <path
     style="fill:#ff6600;fill-opacity:1;stroke-width:0.0853127"
     d="m 273.08215,594.6721 c -1.17212,-0.68192 -1.5981,-1.07935 -1.94539,-1.81498 -0.23878,-0.5058 -0.27068,-0.65971 -0.2692,-1.29895 10e-4,-0.6103 0.0394,-0.80772 0.23999,-1.24645 0.37566,-0.82177 0.81432,-1.17512 3.11374,-2.50818 1.14267,-0.66245 2.0931,-1.18894 2.11205,-1.16998 0.019,0.019 -0.47446,0.37252 -1.09648,0.78568 -3.71393,2.4669 -4.61539,3.67099 -3.87749,5.1792 0.26721,0.54617 1.14472,1.42524 2.06815,2.07183 1.08788,0.76175 0.96194,0.76242 -0.34537,0.002 z"
     id="path1005" />
</svg>
